<?xml version="1.0" encoding="iso-8859-1"?>
<!-- Generator: Adobe Illustrator 19.0.0, SVG Export Plug-In . SVG Version: 6.00 Build 0)  -->
<svg version="1.1" id="Layer_1" xmlns="http://www.w3.org/2000/svg" xmlns:xlink="http://www.w3.org/1999/xlink" x="0px" y="0px"
	 viewBox="0 0 268.565 268.565" style="enable-background:new 0 0 268.565 268.565;" xml:space="preserve">
<g>
	<g>
		<circle style="fill:#FFD155;" cx="154.294" cy="193.205" r="36.298"/>
		<path style="fill:#F59D00;" d="M219.292,244.384l-33.371-33.371c-1.586,2.813-3.566,5.463-5.961,7.858
			c-2.395,2.395-5.045,4.375-7.858,5.961l33.371,33.371c3.816,3.816,10.003,3.816,13.819,0l0,0
			C223.108,254.387,223.108,248.2,219.292,244.384z"/>
		<circle style="fill:#FFFFFF;" cx="154.294" cy="193.205" r="16.04"/>
	</g>
	<g>
		<path style="fill:#FFD155;" d="M128.628,167.539c14.175-14.175,37.158-14.175,51.333,0c11.78,11.78,13.76,29.639,5.961,43.475
			l26.566,26.566V120.153h36.309L134.283,7.5L19.769,120.153h36.309v140.912h50.216v-62.615h12.081
			C116.786,187.501,120.202,175.964,128.628,167.539z"/>
		<path style="fill:#FFD155;" d="M212.383,261.065h0.105v-0.005C212.453,261.061,212.418,261.065,212.383,261.065z"/>
		<g>
			<path style="fill:#FFD155;" d="M172.103,224.832c-3.112,1.754-6.427,3.009-9.831,3.774v32.459h50.111
				c-2.501,0-5.001-0.954-6.909-2.862L172.103,224.832z"/>
			<g>
				<path style="fill:#E87E04;" d="M170.939,209.85c9.178-9.178,9.178-24.111,0-33.29c0,0,0,0,0,0c-9.2-9.2-24.09-9.201-33.29,0
					c-9.199,9.199-9.201,24.089-0.001,33.29C146.849,219.05,161.738,219.051,170.939,209.85z M148.256,187.167
					c3.337-3.338,8.738-3.338,12.076,0c3.33,3.33,3.33,8.747,0.001,12.077c-3.338,3.337-8.739,3.339-12.077-0.001
					C144.918,195.906,144.918,190.505,148.256,187.167z"/>
				<path style="fill:#E87E04;" d="M254.057,114.807L139.543,2.153c-2.919-2.871-7.601-2.871-10.52,0L14.509,114.807
					c-4.777,4.699-1.432,12.847,5.26,12.847h28.81v133.412c0,4.142,3.358,7.5,7.5,7.5h50.216c4.142,0,7.5-3.358,7.5-7.5v-51.197
					c2.134,5.207,5.308,10.084,9.53,14.306c8.539,8.539,19.754,12.808,30.97,12.808c0.159,0,0.318-0.01,0.477-0.011v24.094
					c0,4.142,3.358,7.5,7.5,7.5h50.111h0.105c15.068,0,23.031-18.562,12.108-29.484l-4.608-4.608v-106.82h28.81
					C255.498,127.653,258.827,119.5,254.057,114.807z M133.931,213.568c-11.278-11.278-11.174-29.552,0-40.726
					c11.226-11.226,29.496-11.23,40.727,0c11.112,11.112,11.305,29.418,0,40.726C163.482,224.742,145.197,224.834,133.931,213.568z
					 M213.989,249.688c2.123,2.123-1.09,5.335-3.212,3.212l-27.16-27.16c1.089-0.983,2.152-2.037,3.212-3.212
					C208.084,243.783,209.131,244.829,213.989,249.688z M169.771,253.565v-19.393c0.257-0.097,0.513-0.196,0.768-0.297l19.69,19.69
					H169.771z M212.488,112.653c-4.142,0-7.5,3.358-7.5,7.5v99.32c-4.115-4.115-2.889-2.889-10.022-10.022
					c6.38-16.002,2.798-34.716-9.702-47.216c-17.076-17.077-44.862-17.077-61.94,0c-7.735,7.735-12.183,17.978-12.758,28.715h-4.271
					c-4.142,0-7.5,3.358-7.5,7.5v55.115H63.579V120.153c0-4.142-3.358-7.5-7.5-7.5H38.087l96.196-94.632l96.196,94.632H212.488z"/>
			</g>
		</g>
	</g>
</g>
<g>
</g>
<g>
</g>
<g>
</g>
<g>
</g>
<g>
</g>
<g>
</g>
<g>
</g>
<g>
</g>
<g>
</g>
<g>
</g>
<g>
</g>
<g>
</g>
<g>
</g>
<g>
</g>
<g>
</g>
</svg>
